Coordinates
version=1
nRows=14
nColumns=40
inDegrees=yes

Units are S.I. units (second, meters, Newtons, ...)
If the header above contains a line with 'inDegrees', this indicates whether rotational values are in degrees (yes) or radians (no).

endheader
time	pelvis_tilt	pelvis_list	pelvis_rotation	pelvis_tx	pelvis_ty	pelvis_tz	hip_flexion_r	hip_adduction_r	hip_rotation_r	knee_angle_r	knee_angle_r_beta	ankle_angle_r	subtalar_angle_r	mtp_angle_r	hip_flexion_l	hip_adduction_l	hip_rotation_l	knee_angle_l	knee_angle_l_beta	ankle_angle_l	subtalar_angle_l	mtp_angle_l	lumbar_extension	lumbar_bending	lumbar_rotation	arm_flex_r	arm_add_r	arm_rot_r	elbow_flex_r	pro_sup_r	wrist_flex_r	wrist_dev_r	arm_flex_l	arm_add_l	arm_rot_l	elbow_flex_l	pro_sup_l	wrist_flex_l	wrist_dev_l
      1.49000000	      1.91658113	    -11.78062852	     89.72353942	      0.20127890	      0.91834057	      0.52529629	     16.20175366	      8.78524373	      3.42758654	      5.55572469	      0.09696569	      2.30378153	      0.00000000	      0.00000000	     26.88048541	     -4.41193369	      3.99057372	     61.30827499	      1.07003126	     -1.23546565	      0.00000000	      0.00000000	      9.85239800	     -0.75151180	      3.49301457	      0.00000000	      0.00000000	      0.00000000	      0.00000000	      0.00000000	      0.00000000	      0.00000000	      0.00000000	      0.00000000	      0.00000000	      0.00000000	      0.00000000	      0.00000000	      0.00000000
      1.50000000	      1.89892096	    -11.73297392	     89.70163601	      0.20151922	      0.91863606	      0.51822921	     15.44720056	      8.79729387	      3.64787527	      5.18589007	      0.09051086	      2.59479438	      0.00000000	      0.00000000	     28.15735804	     -4.34179474	      4.06950689	     61.22762114	      1.06862358	      0.16477582	      0.00000000	      0.00000000	      9.71692328	     -0.77734983	      3.58290862	      0.00000000	      0.00000000	      0.00000000	      0.00000000	      0.00000000	      0.00000000	      0.00000000	      0.00000000	      0.00000000	      0.00000000	      0.00000000	      0.00000000	      0.00000000	      0.00000000
      1.51000000	      1.87192242	    -11.68901054	     89.67887530	      0.20173165	      0.91886860	      0.51122797	     14.71865864	      8.79707431	      3.86958545	      4.85099014	      0.08466575	      2.89247254	      0.00000000	      0.00000000	     29.39121743	     -4.24156552	      4.13421095	     60.94980976	      1.06377486	      1.41077550	      0.00000000	      0.00000000	      9.58400279	     -0.81552742	      3.66828597	     -0.00000000	      0.00000000	      0.00000000	      0.00000000	      0.00000000	     -0.00000000	      0.00000000	      0.00000000	      0.00000000	      0.00000000	      0.00000000	      0.00000000	      0.00000000	     -0.00000000
      1.52000000	      1.83565498	    -11.65503456	     89.65607259	      0.20187367	      0.91904759	      0.50430779	     14.01440465	      8.78189180	      4.08896084	      4.52722039	      0.07901490	      3.20617473	      0.00000000	      0.00000000	     30.58415442	     -4.11183411	      4.17763856	     60.46602614	      1.05533124	      2.53767122	      0.00000000	      0.00000000	      9.44343226	     -0.84757551	      3.73196238	      0.00000000	      0.00000000	      0.00000000	      0.00000000	      0.00000000	      0.00000000	      0.00000000	      0.00000000	      0.00000000	      0.00000000	      0.00000000	      0.00000000	      0.00000000	      0.00000000
      1.53000000	      1.79268868	    -11.61607034	     89.62628670	      0.20199388	      0.91916903	      0.49744161	     13.33094820	      8.75815201	      4.30582191	      4.24532170	      0.07409484	      3.51969720	      0.00000000	      0.00000000	     31.71267322	     -3.95765269	      4.21355589	     59.78816137	      1.04350027	      3.51523422	      0.00000000	      0.00000000	      9.30190758	     -0.88440025	      3.78315520	      0.00000000	      0.00000000	      0.00000000	      0.00000000	      0.00000000	      0.00000000	      0.00000000	      0.00000000	      0.00000000	      0.00000000	      0.00000000	      0.00000000	      0.00000000	      0.00000000
      1.54000000	      1.75254277	    -11.55654206	     89.59398448	      0.20206841	      0.91927049	      0.49061705	     12.63387140	      8.73414913	      4.52414638	      3.97003557	      0.06929019	      3.84197347	      0.00000000	      0.00000000	     32.76046922	     -3.78795886	      4.23821724	     58.92335100	      1.02840648	      4.37544365	      0.00000000	      0.00000000	      9.12445015	     -0.91426716	      3.85737147	      0.00000000	      0.00000000	      0.00000000	      0.00000000	      0.00000000	      0.00000000	      0.00000000	      0.00000000	      0.00000000	      0.00000000	      0.00000000	      0.00000000	      0.00000000	      0.00000000
      1.55000000	      1.69640622	    -11.55625291	     89.56359107	      0.20208106	      0.91922447	      0.48385264	     12.03609988	      8.68563036	      4.66548914	      3.75416769	      0.06552259	      4.16542854	      0.00000000	      0.00000000	     33.81242486	     -3.57731941	      4.26252507	     57.87117327	      1.01004252	      5.00352709	      0.00000000	      0.00000000	      9.01775190	     -0.95587041	      3.88172906	      0.00000000	      0.00000000	      0.00000000	      0.00000000	      0.00000000	      0.00000000	      0.00000000	      0.00000000	      0.00000000	      0.00000000	      0.00000000	      0.00000000	      0.00000000	      0.00000000
      1.56000000	      1.63802394	    -11.52111318	     89.52565474	      0.20206807	      0.91917902	      0.47710338	     11.40482514	      8.63486967	      4.87999121	      3.54599105	      0.06188922	      4.51569069	     -0.00000000	     -0.00000000	     34.75610748	     -3.34536575	      4.28357952	     56.64091379	      0.98857044	      5.61404934	     -0.00000000	      0.00000000	      8.86210771	     -0.99109443	      3.91693177	      0.00000000	      0.00000000	      0.00000000	      0.00000000	      0.00000000	      0.00000000	      0.00000000	      0.00000000	      0.00000000	     -0.00000000	      0.00000000	      0.00000000	     -0.00000000	     -0.00000000
      1.57000000	      1.58513699	    -11.40495386	     89.47986807	      0.20202756	      0.91920086	      0.47029378	     10.67581362	      8.58754535	      5.10601890	      3.32563285	      0.05804324	      4.86355985	      0.00000000	      0.00000000	     35.52739240	     -3.11130160	      4.29302377	     55.22153142	      0.96379754	      6.09807216	      0.00000000	      0.00000000	      8.61303045	     -1.01443108	      3.98204285	      0.00000000	      0.00000000	      0.00000000	      0.00000000	      0.00000000	      0.00000000	      0.00000000	      0.00000000	      0.00000000	      0.00000000	      0.00000000	      0.00000000	      0.00000000	      0.00000000
      1.58000000	      1.66907628	    -11.47996863	     89.41921081	      0.20207997	      0.91882254	      0.46373276	     10.31316935	      8.69407889	      5.05455758	      3.37303671	      0.05887060	      5.01605520	     -0.00000000	     -0.00000000	     36.50047671	     -3.04787812	      4.29964992	     53.72072359	      0.93760350	      6.26039945	      0.00000000	     -0.00000000	      8.57822293	     -0.86173943	      4.09299546	     -0.00000000	      0.00000000	     -0.00000000	      0.00000000	      0.00000000	     -0.00000000	     -0.00000000	     -0.00000000	     -0.00000000	      0.00000000	      0.00000000	      0.00000000	     -0.00000000	      0.00000000
      1.59000000	      1.48176923	    -11.43262829	     89.40015784	      0.20183197	      0.91864625	      0.45693613	      9.61979326	      8.48290503	      5.37769857	      3.07319847	      0.05363743	      5.56327601	      0.00000000	      0.00000000	     37.20268798	     -2.58784737	      4.34569409	     51.98181527	      0.90725383	      6.59502189	      0.00000000	     -0.00000000	      8.40656318	     -1.05646482	      3.99576100	      0.00000000	      0.00000000	     -0.00000000	      0.00000000	      0.00000000	      0.00000000	     -0.00000000	      0.00000000	     -0.00000000	     -0.00000000	      0.00000000	      0.00000000	      0.00000000	     -0.00000000
      1.60000000	      1.39954498	    -11.26620598	     89.34481192	      0.20166798	      0.91856853	      0.45006833	      8.84555896	      8.39117820	      5.60330475	      2.87590393	      0.05019399	      5.96197158	      0.00000000	      0.00000000	     37.69634210	     -2.27940770	      4.35582427	     50.09633552	      0.87434600	      6.66431975	      0.00000000	      0.00000000	      8.10398545	     -1.10550778	      4.04251033	     -0.00000000	     -0.00000000	     -0.00000000	      0.00000000	      0.00000000	      0.00000000	      0.00000000	     -0.00000000	     -0.00000000	      0.00000000	      0.00000000	      0.00000000	     -0.00000000	      0.00000000
      1.61000000	      1.36166930	    -11.27219613	     89.29632213	      0.20152187	      0.91813203	      0.44335591	      8.31137486	      8.34827843	      5.72868047	      2.75746499	      0.04812684	      6.31118983	      0.00000000	      0.00000000	     38.35120645	     -2.01000132	      4.39179120	     48.14293059	      0.84025265	      6.64570452	      0.00000000	      0.00000000	      7.99184954	     -1.10687313	      4.06391893	      0.00000000	      0.00000000	      0.00000000	      0.00000000	      0.00000000	      0.00000000	      0.00000000	      0.00000000	      0.00000000	      0.00000000	      0.00000000	      0.00000000	      0.00000000	      0.00000000
      1.62000000	      1.55534605	    -11.35923100	     89.20793079	      0.20159186	      0.91738728	      0.43680566	      7.98826976	      8.57256353	      5.66769240	      2.85958689	      0.04990921	      6.43709861	      0.00000000	      0.00000000	     39.11856304	     -2.06213820	      4.37062654	     46.23029749	      0.80687091	      6.67167566	      0.00000000	      0.00000000	      7.96180571	     -0.82148377	      4.20377717	      0.00000000	      0.00000000	      0.00000000	      0.00000000	      0.00000000	      0.00000000	      0.00000000	      0.00000000	      0.00000000	      0.00000000	      0.00000000	      0.00000000	      0.00000000	      0.00000000
